<?xml version="1.0" encoding="UTF-8" standalone="no"?>
<!DOCTYPE svg PUBLIC "-//W3C//DTD SVG 1.1//EN" "http://www.w3.org/Graphics/SVG/1.1/DTD/svg11.dtd">
<svg width="100%" height="100%" viewBox="0 0 1240 1240" version="1.1" xmlns="http://www.w3.org/2000/svg" xmlns:xlink="http://www.w3.org/1999/xlink" xml:space="preserve" xmlns:serif="http://www.serif.com/" style="fill-rule:evenodd;clip-rule:evenodd;stroke-linecap:round;stroke-linejoin:round;stroke-miterlimit:2;">
    <g transform="matrix(1.00951,0,0,1.00951,-5.89688,-5.89688)">
        <g transform="matrix(0.764738,0,0,0.764738,145.863,145.863)">
            <rect x="0" y="0" width="1240" height="1240" style="fill:white;"/>
            <path d="M1419.9,0C1419.9,-99.359 1339.36,-179.905 1240,-179.905L0,-179.905C-99.359,-179.905 -179.905,-99.359 -179.905,-0L-179.905,1240C-179.905,1339.36 -99.359,1419.9 -0,1419.9L1240,1419.9C1339.36,1419.9 1419.9,1339.36 1419.9,1240L1419.9,0ZM1240,0L0,0L0,1240L1240,1240L1240,0Z" style="fill:white;"/>
        </g>
        <g transform="matrix(1,0,0,1,-15.103,19.6383)">
            <path d="M230.204,362.673L258.637,358.774C259.395,376.971 262.807,389.427 268.872,396.143C274.938,402.858 283.333,406.216 294.056,406.216C301.963,406.216 308.787,404.402 314.527,400.773C320.268,397.145 324.222,392.216 326.388,385.988C328.554,379.76 329.638,369.822 329.638,356.174L329.638,192.076L361.157,192.076L361.157,354.387C361.157,374.317 358.747,389.752 353.927,400.692C349.107,411.632 341.471,419.972 331.019,425.713C320.566,431.454 308.299,434.324 294.218,434.324C273.313,434.324 257.31,428.312 246.207,416.289C235.105,404.266 229.77,386.394 230.204,362.673Z" style="fill-rule:nonzero;stroke:white;stroke-opacity:0;stroke-width:16.51px;"/>
            <path d="M398.039,343.989C398.039,312.036 406.921,288.369 424.685,272.988C439.524,260.206 457.612,253.816 478.951,253.816C502.672,253.816 522.06,261.587 537.116,277.131C552.172,292.674 559.7,314.148 559.7,341.552C559.7,363.756 556.369,381.222 549.708,393.949C543.046,406.676 533.352,416.56 520.625,423.601C507.898,430.641 494.007,434.161 478.951,434.161C454.796,434.161 435.272,426.417 420.379,410.928C405.486,395.439 398.039,373.126 398.039,343.989ZM428.096,343.989C428.096,366.085 432.917,382.63 442.557,393.624C452.197,404.618 464.328,410.115 478.951,410.115C493.465,410.115 505.542,404.591 515.182,393.543C524.822,382.495 529.642,365.652 529.642,343.014C529.642,321.676 524.795,305.509 515.101,294.515C505.407,283.521 493.357,278.024 478.951,278.024C464.328,278.024 452.197,283.494 442.557,294.434C432.917,305.374 428.096,321.892 428.096,343.989Z" style="fill-rule:nonzero;stroke:white;stroke-opacity:0;stroke-width:16.51px;"/>
            <path d="M592.682,496.714L589.433,469.256C595.823,470.989 601.402,471.855 606.167,471.855C612.666,471.855 617.866,470.772 621.765,468.606C625.664,466.44 628.86,463.407 631.351,459.507C633.192,456.583 636.171,449.326 640.287,437.736C640.828,436.111 641.695,433.728 642.886,430.587L577.41,257.715L608.93,257.715L644.836,357.636C649.494,370.309 653.664,383.632 657.347,397.605C660.704,384.174 664.712,371.068 669.37,358.286L706.251,257.715L735.496,257.715L669.857,433.187C662.817,452.142 657.347,465.194 653.447,472.343C648.248,481.983 642.291,489.05 635.575,493.546C628.86,498.041 620.844,500.288 611.529,500.288C605.897,500.288 599.614,499.097 592.682,496.714Z" style="fill-rule:nonzero;stroke:white;stroke-opacity:0;stroke-width:16.51px;"/>
        </g>
        <g transform="matrix(0.902622,0,0,0.902622,-112.395,183.425)">
            <path d="M349.983,791.634L374.382,791.634L374.382,803.115C374.382,813.64 378.879,818.903 387.873,818.903C391.126,818.903 393.949,817.994 396.341,816.176C398.733,814.358 401.029,812.062 403.23,809.287C405.431,806.512 407.727,803.498 410.119,800.245C412.511,796.992 415.286,793.978 418.443,791.203C421.601,788.428 425.285,786.132 429.495,784.314C433.705,782.496 438.776,781.587 444.708,781.587C450.64,781.587 455.759,782.496 460.065,784.314C464.371,786.132 468.15,788.428 471.403,791.203C474.656,793.978 477.527,796.992 480.015,800.245C482.502,803.498 484.942,806.512 487.334,809.287C489.726,812.062 492.214,814.358 494.797,816.176C497.381,817.994 500.299,818.903 503.552,818.903C506.806,818.903 509.676,817.994 512.164,816.176C514.651,814.358 517.091,812.062 519.483,809.287C521.875,806.512 524.315,803.498 526.803,800.245C529.291,796.992 532.209,793.978 535.558,791.203C538.907,788.428 542.734,786.132 547.04,784.314C551.345,782.496 556.464,781.587 562.397,781.587C568.329,781.587 573.4,782.305 577.61,783.74C581.82,785.175 585.504,787.041 588.661,789.337C591.819,791.634 594.593,794.026 596.986,796.513C599.378,799.001 601.722,801.393 604.018,803.689C606.314,805.986 608.707,807.852 611.194,809.287C613.682,810.722 616.552,811.44 619.806,811.44L630.139,811.44L630.139,811.153C628.991,810.387 627.652,809.239 626.121,807.708C624.59,806.369 622.82,804.598 620.81,802.398C618.801,800.197 616.457,797.47 613.778,794.217L560.387,726.761L590.814,726.761L657.121,811.44L590.527,896.118L560.387,896.118L612.055,830.959C605.549,830.002 600.143,827.993 595.837,824.931C591.532,821.869 587.657,818.711 584.212,815.458C580.767,812.205 577.419,809.335 574.165,806.847C570.912,804.359 566.989,803.115 562.397,803.115C559.143,803.115 556.225,804.024 553.642,805.842C551.058,807.66 548.571,809.957 546.179,812.731C543.786,815.506 541.347,818.52 538.859,821.773C536.371,825.026 533.501,828.04 530.248,830.815C526.994,833.59 523.215,835.886 518.909,837.704C514.604,839.522 509.485,840.431 503.552,840.431C497.62,840.431 492.453,839.522 488.052,837.704C483.651,835.886 479.823,833.59 476.57,830.815C473.317,828.04 470.446,825.026 467.959,821.773C465.471,818.52 462.983,815.506 460.496,812.731C458.008,809.957 455.472,807.66 452.889,805.842C450.305,804.024 447.387,803.115 444.134,803.115C439.159,803.115 435.044,805.077 431.791,809C428.538,812.923 425.141,817.181 421.601,821.773C418.061,826.366 413.707,830.624 408.54,834.547C403.374,838.47 396.293,840.431 387.299,840.431C376.009,840.431 366.967,836.987 360.173,830.098C353.38,823.209 349.983,814.214 349.983,803.115L349.983,791.634Z" style="fill-rule:nonzero;stroke:white;stroke-opacity:0;stroke-width:18.29px;"/>
            <path d="M936.99,883.488C936.99,876.025 939.239,870.045 943.736,865.548C948.233,861.051 954.213,858.802 961.676,858.802C969.14,858.802 975.12,861.051 979.617,865.548C984.114,870.045 986.362,876.025 986.362,883.488C986.362,891.143 984.114,897.314 979.617,902.002C975.12,906.691 969.14,909.035 961.676,909.035C954.213,909.035 948.233,906.691 943.736,902.002C939.239,897.314 936.99,891.143 936.99,883.488ZM1080.23,883.488C1080.23,876.025 1082.47,870.045 1086.97,865.548C1091.47,861.051 1097.45,858.802 1104.91,858.802C1112.38,858.802 1118.36,861.051 1122.85,865.548C1127.35,870.045 1129.6,876.025 1129.6,883.488C1129.6,891.143 1127.35,897.314 1122.85,902.002C1118.36,906.691 1112.38,909.035 1104.91,909.035C1097.45,909.035 1091.47,906.691 1086.97,902.002C1082.47,897.314 1080.23,891.143 1080.23,883.488ZM1223.46,883.488C1223.46,876.025 1225.71,870.045 1230.21,865.548C1234.7,861.051 1240.68,858.802 1248.15,858.802C1255.61,858.802 1261.59,861.051 1266.09,865.548C1270.59,870.045 1272.83,876.025 1272.83,883.488C1272.83,891.143 1270.59,897.314 1266.09,902.002C1261.59,906.691 1255.61,909.035 1248.15,909.035C1240.68,909.035 1234.7,906.691 1230.21,902.002C1225.71,897.314 1223.46,891.143 1223.46,883.488Z" style="fill-rule:nonzero;stroke:white;stroke-opacity:0;stroke-width:18.29px;"/>
        </g>
    </g>
</svg>
